<svg width="235" height="60" viewBox="0 0 235 60" fill="none" xmlns="http://www.w3.org/2000/svg">
<g filter="url(#filter0_d_120_260)">
<path d="M27.4064 41H36.9717C37.4343 41 37.5819 40.6487 37.7429 40.2973C38.36 38.9506 39.5017 36.5031 39.7485 36.0815C39.9954 35.6599 40.2114 35.7302 40.6742 35.7302H42.9886H45.0189C45.4818 35.7302 45.6977 35.6599 45.9446 36.0815C46.1914 36.5031 47.3331 38.9506 47.9502 40.2973C48.1112 40.6487 48.2588 41 48.7214 41H58.2868C58.9039 41 59.4439 40.6487 59.0582 39.7704C58.5644 38.6462 52.7843 26.3032 49.8016 20.0966C49.7502 19.9209 49.5549 19.5696 49.1845 19.5696H42.8343H36.5086C36.1382 19.5696 35.9429 19.9209 35.8915 20.0966C32.9089 26.3032 27.1287 38.6462 26.635 39.7704C26.2492 40.6487 26.7892 41 27.4064 41Z" fill="url(#paint0_linear_120_260)"/>
<path d="M19.8468 41H22.9324C22.1919 41 22.4181 40.1802 22.6238 39.7704C25.6579 33.3295 31.788 20.3425 32.0348 19.9209C32.2817 19.4993 32.5491 19.3939 32.6519 19.3939H29.2578C29.0109 19.3939 28.8464 19.6281 28.7949 19.7452C25.8637 26.0104 19.8468 38.7867 19.2297 39.7704C18.6125 40.7541 19.3839 41 19.8468 41Z" fill="url(#paint1_linear_120_260)"/>
</g>
<path d="M83.3574 35.02C83.3574 36.1036 83.1274 37.1053 82.6676 38.0253C82.2077 38.9249 81.4656 39.6507 80.4413 40.2027C79.438 40.7342 78.0897 41 76.3965 41C75.4349 41 74.4316 40.8876 73.3864 40.6627C72.3621 40.4378 71.2333 40.0596 70 39.528L71.1601 36.3693C72.268 36.7578 73.1982 37.0644 73.9508 37.2893C74.7242 37.4938 75.4976 37.596 76.2711 37.596C77.379 37.596 78.2151 37.3813 78.7795 36.952C79.3648 36.5022 79.6575 35.8071 79.6575 34.8667V34.4373C79.6575 33.6604 79.4066 33.0369 78.9049 32.5667C78.4241 32.076 77.6716 31.8307 76.6473 31.8307H73.3237V28.5187H76.6473C77.6298 28.5187 78.351 28.2938 78.8109 27.844C79.2707 27.3738 79.5007 26.7707 79.5007 26.0347V25.6053C79.5007 24.6649 79.2289 23.9902 78.6854 23.5813C78.1628 23.152 77.3894 22.9373 76.3651 22.9373C75.6335 22.9373 74.8914 23.0396 74.1389 23.244C73.4073 23.428 72.5189 23.7142 71.4737 24.1027L70.3136 20.944C71.4842 20.4124 72.5711 20.0444 73.5745 19.84C74.5779 19.6356 75.5499 19.5333 76.4906 19.5333C78.1001 19.5333 79.3962 19.7991 80.3786 20.3307C81.3611 20.8622 82.0718 21.5778 82.5108 22.4773C82.9707 23.3769 83.2006 24.3684 83.2006 25.452V25.8813C83.2006 26.8422 82.9498 27.6907 82.4481 28.4267C81.9673 29.1422 81.3297 29.7147 80.5354 30.144C81.3924 30.5938 82.0718 31.1969 82.5735 31.9533C83.0961 32.6893 83.3574 33.5684 83.3574 34.5907V35.02Z" fill="url(#paint2_linear_120_260)"/>
<path d="M87.0879 40.6933V19.84H94.2997C96.8499 19.84 98.7939 20.5351 100.132 21.9253C101.47 23.3156 102.139 25.36 102.139 28.0587V32.444C102.139 35.1631 101.47 37.2178 100.132 38.608C98.7939 39.9982 96.8499 40.6933 94.2997 40.6933H87.0879ZM94.1429 23.3667H90.8506V37.1667H94.1429C95.627 37.1667 96.6827 36.8089 97.3098 36.0933C97.9578 35.3778 98.2818 34.1613 98.2818 32.444V28.0587C98.2818 26.3618 97.9578 25.1556 97.3098 24.44C96.6827 23.7244 95.627 23.3667 94.1429 23.3667Z" fill="url(#paint3_linear_120_260)"/>
<path d="M116.15 37.596C118.575 37.596 119.787 36.7169 119.787 34.9587C119.787 34.2431 119.599 33.6809 119.223 33.272C118.868 32.8631 118.199 32.5053 117.216 32.1987L114.645 31.3707C111.572 30.3893 110.036 28.4164 110.036 25.452C110.036 23.7347 110.579 22.324 111.666 21.22C112.774 20.0956 114.499 19.5333 116.84 19.5333C117.822 19.5333 118.794 19.6458 119.756 19.8707C120.718 20.0751 121.742 20.4124 122.829 20.8827L121.669 24.0413C120.665 23.6529 119.808 23.3769 119.098 23.2133C118.408 23.0293 117.697 22.9373 116.965 22.9373C116.004 22.9373 115.241 23.1111 114.676 23.4587C114.133 23.7858 113.861 24.3889 113.861 25.268C113.861 25.9222 114.049 26.464 114.426 26.8933C114.823 27.3022 115.471 27.6498 116.37 27.936L118.941 28.764C120.488 29.2751 121.648 30.0213 122.421 31.0027C123.216 31.9636 123.613 33.2413 123.613 34.836C123.613 36.676 123.017 38.1684 121.826 39.3133C120.634 40.4378 118.763 41 116.213 41C115.21 41 114.164 40.8876 113.077 40.6627C112.011 40.4173 110.841 40.0084 109.566 39.436L110.726 36.2773C111.896 36.768 112.889 37.1156 113.704 37.32C114.541 37.504 115.356 37.596 116.15 37.596Z" fill="url(#paint4_linear_120_260)"/>
<path d="M134.104 28.12C133.581 28.12 132.985 28.2427 132.316 28.488C131.647 28.7333 130.853 29.2138 129.933 29.9293V40.6933H126.327V18H129.933V27.0773C130.895 26.28 131.794 25.7076 132.63 25.36C133.466 25.0124 134.323 24.8387 135.201 24.8387C136.727 24.8387 137.887 25.3191 138.681 26.28C139.476 27.2204 139.873 28.5493 139.873 30.2667V40.6933H136.267V30.696C136.267 28.9787 135.546 28.12 134.104 28.12Z" fill="url(#paint5_linear_120_260)"/>
<path d="M156.71 31.984V33.824C156.71 35.9911 156.104 37.7289 154.892 39.0373C153.679 40.3458 151.965 41 149.749 41C147.534 41 145.82 40.3458 144.607 39.0373C143.395 37.7289 142.789 35.9911 142.789 33.824V31.984C142.789 29.8169 143.384 28.0893 144.576 26.8013C145.788 25.4929 147.513 24.8387 149.749 24.8387C151.986 24.8387 153.7 25.4929 154.892 26.8013C156.104 28.0893 156.71 29.8169 156.71 31.984ZM153.01 31.984C153.01 30.7369 152.728 29.7658 152.164 29.0707C151.599 28.3551 150.795 27.9973 149.749 27.9973C148.704 27.9973 147.899 28.3551 147.335 29.0707C146.771 29.7658 146.488 30.7369 146.488 31.984V33.824C146.488 35.0711 146.771 36.0524 147.335 36.768C147.899 37.4836 148.704 37.8413 149.749 37.8413C150.795 37.8413 151.599 37.4836 152.164 36.768C152.728 36.0524 153.01 35.0711 153.01 33.824V31.984Z" fill="url(#paint6_linear_120_260)"/>
<path d="M179.292 25.1453L175.216 40.6933H171.296L168.662 29.0093L165.872 40.6933H161.952L157.876 25.1453H161.576L163.112 31.3093L164.179 36.9213L166.875 25.1453H170.512L173.303 37.044L174.306 31.34L175.811 25.1453H179.292Z" fill="url(#paint7_linear_120_260)"/>
<path d="M184.137 32.0147V33.824C184.137 35.1324 184.378 36.1138 184.859 36.768C185.339 37.4222 186.113 37.7493 187.179 37.7493C187.701 37.7493 188.287 37.688 188.935 37.5653C189.604 37.4222 190.325 37.2076 191.098 36.9213L192.133 39.896C191.192 40.264 190.304 40.54 189.468 40.724C188.632 40.908 187.806 41 186.991 41C184.9 41 183.301 40.3458 182.193 39.0373C181.086 37.7289 180.532 35.9911 180.532 33.824V32.0147C180.532 29.8271 181.086 28.0893 182.193 26.8013C183.301 25.4929 184.9 24.8387 186.991 24.8387C187.785 24.8387 188.59 24.9307 189.405 25.1147C190.22 25.2987 191.077 25.5644 191.976 25.912L190.942 28.948C189.436 28.3756 188.182 28.0893 187.179 28.0893C186.113 28.0893 185.339 28.4164 184.859 29.0707C184.378 29.7044 184.137 30.6858 184.137 32.0147Z" fill="url(#paint8_linear_120_260)"/>
<path d="M206.533 40.8467C205.467 40.8467 204.61 40.632 203.962 40.2027C203.335 39.7733 202.875 39.2418 202.582 38.608C201.683 39.4258 200.816 40.0289 199.979 40.4173C199.143 40.8058 198.244 41 197.283 41C195.882 41 194.848 40.5604 194.179 39.6813C193.531 38.8022 193.207 37.688 193.207 36.3387C193.207 35.4391 193.374 34.652 193.708 33.9773C194.064 33.2822 194.639 32.7404 195.433 32.352C196.227 31.9636 197.314 31.7693 198.694 31.7693C199.237 31.7693 199.802 31.8102 200.387 31.892C200.972 31.9533 201.558 32.0351 202.143 32.1373V30.328C202.143 29.4693 201.903 28.8867 201.422 28.58C200.941 28.2529 200.293 28.0893 199.478 28.0893C198.851 28.0893 198.161 28.1711 197.408 28.3347C196.677 28.4982 195.882 28.7538 195.025 29.1013L193.991 26.096C196.102 25.2578 198.015 24.8387 199.729 24.8387C201.276 24.8387 202.467 25.0942 203.303 25.6053C204.16 26.1164 204.756 26.7911 205.09 27.6293C205.425 28.4676 205.592 29.3671 205.592 30.328V36.308C205.592 36.6147 205.676 36.9111 205.843 37.1973C206.031 37.4631 206.386 37.596 206.909 37.596H207.254V40.8467H206.533ZM196.687 36.2773C196.687 36.8293 196.813 37.2689 197.063 37.596C197.314 37.9027 197.68 38.056 198.161 38.056C198.642 38.056 199.185 37.9333 199.791 37.688C200.398 37.4427 201.181 36.8702 202.143 35.9707V34.652C201.056 34.468 199.99 34.376 198.945 34.376C198.13 34.376 197.544 34.5396 197.189 34.8667C196.854 35.1938 196.687 35.664 196.687 36.2773Z" fill="url(#paint9_linear_120_260)"/>
<path d="M213.896 37.9333C214.67 37.9333 215.307 37.8107 215.809 37.5653C216.31 37.2996 216.561 36.9111 216.561 36.4C216.561 35.9502 216.394 35.6027 216.06 35.3573C215.746 35.0916 215.171 34.8564 214.335 34.652L212.548 34.192C211.168 33.8444 210.144 33.2618 209.475 32.444C208.827 31.6262 208.503 30.6551 208.503 29.5307C208.503 28.2018 208.973 27.0876 209.914 26.188C210.855 25.2884 212.307 24.8387 214.272 24.8387C215.067 24.8387 215.903 24.9307 216.781 25.1147C217.659 25.2987 218.579 25.5951 219.54 26.004L218.505 29.0093C217.627 28.6004 216.833 28.3142 216.122 28.1507C215.412 27.9871 214.785 27.9053 214.241 27.9053C212.757 27.9053 212.015 28.396 212.015 29.3773C212.015 29.7658 212.14 30.0724 212.391 30.2973C212.663 30.5222 213.154 30.7267 213.865 30.9107L215.652 31.3707C217.178 31.7591 218.286 32.352 218.976 33.1493C219.686 33.9467 220.042 34.9484 220.042 36.1547C220.042 37.5858 219.54 38.7511 218.537 39.6507C217.554 40.5502 215.997 41 213.865 41C212.046 41 210.133 40.5911 208.127 39.7733L209.099 36.86C210.081 37.2484 210.97 37.5244 211.764 37.688C212.558 37.8516 213.269 37.9333 213.896 37.9333Z" fill="url(#paint10_linear_120_260)"/>
<path d="M234.875 39.804C233.788 40.2333 232.763 40.54 231.802 40.724C230.84 40.908 229.931 41 229.074 41C226.712 41 224.924 40.3458 223.712 39.0373C222.5 37.7289 221.893 35.9911 221.893 33.824V31.984C221.893 30.5324 222.165 29.2751 222.709 28.212C223.252 27.1489 224.026 26.3209 225.029 25.728C226.032 25.1351 227.213 24.8387 228.572 24.8387C229.68 24.8387 230.715 25.0636 231.676 25.5133C232.659 25.9427 233.453 26.6276 234.059 27.568C234.686 28.488 235 29.6738 235 31.1253C235 31.5547 234.969 32.0147 234.906 32.5053C234.843 32.9756 234.739 33.4764 234.592 34.008H225.374C225.416 35.2756 225.74 36.2262 226.346 36.86C226.952 37.4938 227.924 37.8107 229.262 37.8107C229.973 37.8107 230.704 37.7289 231.457 37.5653C232.23 37.4018 233.025 37.1564 233.84 36.8293L234.875 39.804ZM228.572 27.8133C227.611 27.8133 226.858 28.12 226.315 28.7333C225.792 29.3262 225.489 30.1849 225.405 31.3093H231.425C231.446 31.2071 231.457 31.1151 231.457 31.0333C231.457 30.9311 231.457 30.8391 231.457 30.7573C231.457 29.776 231.175 29.04 230.61 28.5493C230.046 28.0587 229.366 27.8133 228.572 27.8133Z" fill="url(#paint11_linear_120_260)"/>
<defs>
<filter id="filter0_d_120_260" x="0.200001" y="0.593922" width="77.7875" height="59.2061" filterUnits="userSpaceOnUse" color-interpolation-filters="sRGB">
<feFlood flood-opacity="0" result="BackgroundImageFix"/>
<feColorMatrix in="SourceAlpha" type="matrix" values="0 0 0 0 0 0 0 0 0 0 0 0 0 0 0 0 0 0 127 0" result="hardAlpha"/>
<feOffset/>
<feGaussianBlur stdDeviation="9.4"/>
<feComposite in2="hardAlpha" operator="out"/>
<feColorMatrix type="matrix" values="0 0 0 0 1 0 0 0 0 1 0 0 0 0 1 0 0 0 0.15 0"/>
<feBlend mode="normal" in2="BackgroundImageFix" result="effect1_dropShadow_120_260"/>
<feBlend mode="normal" in="SourceGraphic" in2="effect1_dropShadow_120_260" result="shape"/>
</filter>
<linearGradient id="paint0_linear_120_260" x1="42.8466" y1="19.5696" x2="42.8466" y2="41" gradientUnits="userSpaceOnUse">
<stop stop-color="#48226B"/>
<stop offset="1" stop-color="#664188"/>
</linearGradient>
<linearGradient id="paint1_linear_120_260" x1="25.826" y1="19.3939" x2="25.826" y2="41" gradientUnits="userSpaceOnUse">
<stop stop-color="#48226B"/>
<stop offset="1" stop-color="#664188"/>
</linearGradient>
<linearGradient id="paint2_linear_120_260" x1="152.5" y1="18" x2="152.5" y2="41" gradientUnits="userSpaceOnUse">
<stop stop-color="#737373"/>
<stop offset="1" stop-color="#525252"/>
</linearGradient>
<linearGradient id="paint3_linear_120_260" x1="152.5" y1="18" x2="152.5" y2="41" gradientUnits="userSpaceOnUse">
<stop stop-color="#737373"/>
<stop offset="1" stop-color="#525252"/>
</linearGradient>
<linearGradient id="paint4_linear_120_260" x1="152.5" y1="18" x2="152.5" y2="41" gradientUnits="userSpaceOnUse">
<stop stop-color="#737373"/>
<stop offset="1" stop-color="#525252"/>
</linearGradient>
<linearGradient id="paint5_linear_120_260" x1="152.5" y1="18" x2="152.5" y2="41" gradientUnits="userSpaceOnUse">
<stop stop-color="#737373"/>
<stop offset="1" stop-color="#525252"/>
</linearGradient>
<linearGradient id="paint6_linear_120_260" x1="152.5" y1="18" x2="152.5" y2="41" gradientUnits="userSpaceOnUse">
<stop stop-color="#737373"/>
<stop offset="1" stop-color="#525252"/>
</linearGradient>
<linearGradient id="paint7_linear_120_260" x1="152.5" y1="18" x2="152.5" y2="41" gradientUnits="userSpaceOnUse">
<stop stop-color="#737373"/>
<stop offset="1" stop-color="#525252"/>
</linearGradient>
<linearGradient id="paint8_linear_120_260" x1="152.5" y1="18" x2="152.5" y2="41" gradientUnits="userSpaceOnUse">
<stop stop-color="#737373"/>
<stop offset="1" stop-color="#525252"/>
</linearGradient>
<linearGradient id="paint9_linear_120_260" x1="152.5" y1="18" x2="152.5" y2="41" gradientUnits="userSpaceOnUse">
<stop stop-color="#737373"/>
<stop offset="1" stop-color="#525252"/>
</linearGradient>
<linearGradient id="paint10_linear_120_260" x1="152.5" y1="18" x2="152.5" y2="41" gradientUnits="userSpaceOnUse">
<stop stop-color="#737373"/>
<stop offset="1" stop-color="#525252"/>
</linearGradient>
<linearGradient id="paint11_linear_120_260" x1="152.5" y1="18" x2="152.5" y2="41" gradientUnits="userSpaceOnUse">
<stop stop-color="#737373"/>
<stop offset="1" stop-color="#525252"/>
</linearGradient>
</defs>
</svg>
