<svg width="80" height="80" viewBox="0 0 80 80" fill="none" xmlns="http://www.w3.org/2000/svg">
<path d="M18.1634 31.9406L48.114 61.8912L33.0216 76.9836C29.1164 80.8888 22.7847 80.8889 18.8795 76.9836L3.07102 61.1751C-0.834223 57.2699 -0.834218 50.9383 3.07102 47.033L18.1634 31.9406Z" fill="rgba(255,50,50,0.6)"/>
<path d="M9.1787 30.1436C11.1637 28.1587 14.3819 28.1587 16.3668 30.1436L49.9115 63.6883C51.8965 65.6732 51.8965 68.8915 49.9115 70.8764C47.9266 72.8614 44.7083 72.8614 42.7234 70.8764L9.1787 37.3317C7.19375 35.3468 7.19375 32.1286 9.1787 30.1436Z" fill="rgba(255,50,50,0.6)"/>
<path d="M23.5547 56.5C25.5396 58.485 25.5396 61.7032 23.5547 63.6882L9.7774 77.4654C7.79245 79.4504 4.57421 79.4504 2.58926 77.4654C0.60431 75.4805 0.60431 72.2622 2.58926 70.2773L16.3665 56.5C18.3515 54.5151 21.5697 54.5151 23.5547 56.5Z" fill="rgba(255,50,50,0.6)"/>
<path d="M61.8914 48.114L31.9408 18.1634L47.0332 3.07102C50.9384 -0.834218 57.2701 -0.834224 61.1753 3.07102L76.9838 18.8795C80.889 22.7847 80.889 29.1164 76.9838 33.0216L61.8914 48.114Z" fill="rgba(255,50,50,0.6)"/>
<path d="M70.8766 49.9109C68.8917 51.8959 65.6734 51.8959 63.6885 49.9109L30.1438 16.3662C28.1589 14.3813 28.1589 11.163 30.1438 9.17809C32.1288 7.19314 35.347 7.19314 37.3319 9.1781L70.8766 42.7228C72.8616 44.7077 72.8616 47.926 70.8766 49.9109Z" fill="rgba(255,50,50,0.6)"/>
<path d="M56.5001 23.5545C54.5152 21.5695 54.5152 18.3513 56.5001 16.3664L70.2774 2.58908C72.2624 0.604126 75.4806 0.604129 77.4656 2.58908C79.4505 4.57403 79.4505 7.79227 77.4656 9.77722L63.6883 23.5545C61.7033 25.5394 58.4851 25.5394 56.5001 23.5545Z" fill="rgba(255,50,50,0.6)"/>
<path d="M45.119 50.51C43.7957 49.1867 43.7957 47.0412 45.119 45.7179L61.2923 29.5446C62.6156 28.2213 64.7611 28.2213 66.0844 29.5446C67.4077 30.8679 67.4077 33.0134 66.0844 34.3367L49.9111 50.51C48.5878 51.8333 46.4423 51.8333 45.119 50.51Z" fill="rgba(255,50,50,0.6)"/>
<path d="M29.5448 34.9356C28.2215 33.6123 28.2215 31.4668 29.5448 30.1435L45.7181 13.9702C47.0414 12.6469 49.1869 12.6469 50.5102 13.9702C51.8335 15.2935 51.8335 17.4389 50.5102 18.7622L34.3369 34.9356C33.0136 36.2589 30.8681 36.2589 29.5448 34.9356Z" fill="rgba(255,50,50,0.6)"/>
</svg>
