<svg width="5869" height="1532" viewBox="0 0 5869 1532" fill="none" xmlns="http://www.w3.org/2000/svg">
<path d="M4462.92 955.901H4886.11C4906.58 955.901 4913.11 940.358 4920.23 924.815C4947.53 865.233 4998.04 756.949 5008.97 738.298C5019.89 719.646 5029.44 722.755 5049.92 722.755H5152.31H5242.14C5262.62 722.755 5272.17 719.646 5283.09 738.298C5294.01 756.949 5344.52 865.233 5371.83 924.815C5378.95 940.358 5385.48 955.901 5405.95 955.901H5829.14C5856.44 955.901 5880.33 940.358 5863.27 901.5C5841.42 851.763 5585.7 305.681 5453.74 31.0866C5451.46 23.3151 5442.82 7.77197 5426.43 7.77197H5145.49H4865.63C4849.24 7.77197 4840.6 23.3151 4838.32 31.0866C4706.36 305.681 4450.64 851.763 4428.79 901.5C4411.73 940.358 4435.62 955.901 4462.92 955.901Z" fill="#512D7E"/>
<path d="M4128.46 955.901H4264.98C4232.22 955.901 4242.22 919.633 4251.32 901.5C4385.56 616.543 4656.77 41.9664 4667.69 23.3146C4678.61 4.66293 4690.44 0 4694.99 0H4544.83C4533.91 0 4526.63 10.3621 4524.35 15.5431C4394.66 292.728 4128.46 857.979 4101.16 901.5C4073.86 945.02 4107.99 955.901 4128.46 955.901Z" fill="#512D7E"/>
<path d="M874.55 956H769.118L652.872 696.526H221.679L105.433 956H0L424.434 10H450.116L874.55 956ZM610.969 603.277L436.599 205.957L263.582 603.277H610.969Z" fill="#727272"/>
<path d="M1549.41 101.897H1215.54V956H1120.92V101.897H787.049V10H1549.41V101.897Z" fill="#727272"/>
<path d="M2324.63 956H2208.38L1973.19 568.14H1778.54V956H1683.92V10H1917.77C1965.53 10 2008.33 17.2076 2046.18 31.6229C2084.03 46.0381 2116.02 66.3095 2142.15 92.4371C2168.28 117.664 2188.11 147.395 2201.63 181.631C2215.14 215.868 2221.9 252.356 2221.9 291.097C2221.9 344.253 2207.93 392.004 2180 434.349C2152.96 476.693 2116.92 512.281 2071.86 541.111L2324.63 956ZM2124.58 291.097C2124.58 264.97 2120.07 240.644 2111.06 218.12C2102.05 194.695 2088.53 174.424 2070.51 157.306C2052.49 140.188 2029.96 126.673 2002.92 116.763C1975.89 106.852 1944.35 101.897 1908.31 101.897H1778.54V477.594H1908.31C1943.45 477.594 1974.54 473.09 2001.57 464.08C2028.61 454.17 2051.14 441.106 2069.16 424.889C2088.08 407.77 2102.05 387.95 2111.06 365.426C2120.07 342.001 2124.58 317.225 2124.58 291.097Z" fill="#727272"/>
<path d="M2533.59 956H2438.98V10H2533.59V956Z" fill="#727272"/>
<path d="M3744 956H3643.97L3610.18 310.017L3246.57 956H3230.35L2864.04 304.611L2830.25 956H2730.22L2785.64 10H2801.86L3238.46 785.72L3672.36 10H3688.58L3744 956Z" fill="#727272"/>
<path d="M0 1525.8V1163.14H116.95C142.664 1163.14 164.131 1167.8 181.352 1177.13C198.691 1186.33 211.725 1199.14 220.454 1215.55C229.3 1231.84 233.723 1250.56 233.723 1271.69C233.723 1292.82 229.3 1311.47 220.454 1327.65C211.725 1343.82 198.75 1356.45 181.529 1365.54C164.308 1374.63 142.959 1379.18 117.481 1379.18H17.8698V1348.9H116.596C135.469 1348.9 151.156 1345.77 163.659 1339.51C176.28 1333.25 185.657 1324.34 191.791 1312.77C198.043 1301.2 201.168 1287.51 201.168 1271.69C201.168 1255.87 198.043 1242.06 191.791 1230.25C185.54 1218.33 176.103 1209.12 163.482 1202.62C150.979 1196.13 135.174 1192.89 116.065 1192.89H33.0857V1525.8H0ZM159.767 1362.18L248.939 1525.8H210.722L122.435 1362.18H159.767Z" fill="#727272"/>
<path d="M314.314 1525.8V1163.14H524.506V1192.89H347.4V1329.42H513.36V1359.17H347.4V1496.05H528.045V1525.8H314.314Z" fill="#727272"/>
<path d="M610.67 1525.8H575.992L707.804 1163.14H743.19L875.002 1525.8H840.324L726.736 1206.17H724.259L610.67 1525.8ZM635.617 1386.79H815.377V1416.54H635.617V1386.79Z" fill="#727272"/>
<path d="M937.104 1525.8V1163.14H970.19V1496.05H1142.87V1525.8H937.104Z" fill="#727272"/>
<path d="M1203.03 1525.8V1500.83L1404.2 1192.89H1201.97V1163.14H1443.65V1188.1L1242.31 1496.05H1445.42V1525.8H1203.03Z" fill="#727272"/>
<path d="M1525.88 1525.8H1491.2L1623.01 1163.14H1658.4L1790.21 1525.8H1755.53L1641.95 1206.17H1639.47L1525.88 1525.8ZM1550.83 1386.79H1730.59V1416.54H1550.83V1386.79Z" fill="#727272"/>
<path d="M1970.5 1192.89V1163.14H2233.24V1192.89H2118.42V1525.8H2085.33V1192.89H1970.5Z" fill="#727272"/>
<path d="M2549.24 1163.14H2582.32V1403.26C2582.32 1427.93 2576.54 1450.01 2564.98 1469.49C2553.42 1488.85 2537.32 1504.14 2516.68 1515.35C2496.16 1526.45 2472.27 1532 2445.03 1532C2417.9 1532 2394.01 1526.39 2373.37 1515.18C2352.73 1503.96 2336.63 1488.67 2325.07 1469.31C2313.51 1449.95 2307.73 1427.93 2307.73 1403.26V1163.14H2340.81V1400.96C2340.81 1420.2 2345.12 1437.38 2353.73 1452.49C2362.34 1467.48 2374.43 1479.29 2390 1487.91C2405.69 1496.52 2424.03 1500.83 2445.03 1500.83C2466.02 1500.83 2484.36 1496.52 2500.05 1487.91C2515.74 1479.29 2527.83 1467.48 2536.32 1452.49C2544.93 1437.38 2549.24 1420.2 2549.24 1400.96V1163.14Z" fill="#727272"/>
<path d="M2875.23 1253.8C2873.22 1233.61 2864.32 1217.56 2848.51 1205.64C2832.71 1193.71 2812.83 1187.75 2788.89 1187.75C2772.02 1187.75 2757.16 1190.64 2744.3 1196.43C2731.56 1202.21 2721.54 1210.24 2714.22 1220.51C2707.03 1230.66 2703.43 1242.23 2703.43 1255.22C2703.43 1264.78 2705.5 1273.16 2709.62 1280.36C2713.75 1287.57 2719.3 1293.76 2726.25 1298.96C2733.33 1304.03 2741.12 1308.4 2749.61 1312.06C2758.22 1315.72 2766.89 1318.79 2775.62 1321.27L2813.83 1332.25C2825.39 1335.44 2836.95 1339.51 2848.51 1344.47C2860.07 1349.43 2870.63 1355.68 2880.18 1363.24C2889.86 1370.68 2897.58 1379.83 2903.36 1390.69C2909.26 1401.43 2912.21 1414.36 2912.21 1429.47C2912.21 1448.83 2907.19 1466.24 2897.17 1481.71C2887.14 1497.17 2872.75 1509.45 2854 1518.54C2835.24 1527.51 2812.77 1532 2786.59 1532C2761.94 1532 2740.53 1527.93 2722.36 1519.78C2704.2 1511.52 2689.93 1500.12 2679.55 1485.6C2669.17 1471.08 2663.33 1454.26 2662.03 1435.14H2696C2697.18 1449.42 2701.9 1461.52 2710.15 1471.44C2718.41 1481.35 2729.14 1488.91 2742.36 1494.1C2755.57 1499.18 2770.31 1501.72 2786.59 1501.72C2804.63 1501.72 2820.68 1498.71 2834.71 1492.69C2848.87 1486.55 2859.95 1478.05 2867.97 1467.19C2876.11 1456.21 2880.18 1443.46 2880.18 1428.94C2880.18 1416.66 2877 1406.39 2870.63 1398.12C2864.26 1389.74 2855.35 1382.72 2843.91 1377.05C2832.59 1371.39 2819.44 1366.37 2804.46 1362L2761.11 1349.25C2732.68 1340.75 2710.63 1329 2694.94 1314.01C2679.25 1299.02 2671.41 1279.89 2671.41 1256.64C2671.41 1237.16 2676.6 1220.04 2686.98 1205.28C2697.47 1190.41 2711.63 1178.84 2729.44 1170.57C2747.37 1162.19 2767.48 1158 2789.77 1158C2812.3 1158 2832.24 1162.13 2849.57 1170.4C2866.91 1178.66 2880.65 1190.05 2890.8 1204.57C2901.06 1218.98 2906.55 1235.39 2907.25 1253.8H2875.23Z" fill="#727272"/>
<path d="M3132.48 1525.8H3097.81L3229.62 1163.14H3265L3396.82 1525.8H3362.14L3248.55 1206.17H3246.07L3132.48 1525.8ZM3157.43 1386.79H3337.19V1416.54H3157.43V1386.79Z" fill="#727272"/>
<path d="M3458.92 1163.14H3497.13L3628.59 1479.05H3631.78L3763.24 1163.14H3801.45V1525.8H3770.31V1233.08H3767.48L3645.22 1525.8H3615.15L3492.89 1233.08H3490.06V1525.8H3458.92V1163.14Z" fill="#727272"/>
<path d="M3897.79 1525.8V1163.14H4020.05C4043.64 1163.14 4063.28 1167.27 4078.97 1175.53C4094.77 1183.8 4106.63 1195.07 4114.53 1209.35C4122.43 1223.64 4126.38 1239.87 4126.38 1258.05C4126.38 1273.16 4123.85 1286.09 4118.77 1296.83C4113.7 1307.58 4106.8 1316.25 4098.07 1322.86C4089.35 1329.48 4079.61 1334.26 4068.88 1337.21V1340.04C4080.56 1340.87 4091.88 1345 4102.85 1352.44C4113.82 1359.76 4122.84 1370.03 4129.92 1383.25C4137 1396.47 4140.54 1412.29 4140.54 1430.71C4140.54 1449.01 4136.47 1465.36 4128.33 1479.76C4120.19 1494.05 4107.69 1505.32 4090.82 1513.58C4074.07 1521.73 4052.72 1525.8 4026.77 1525.8H3897.79ZM3930.88 1496.05H4026.77C4054.73 1496.05 4075.37 1489.85 4088.7 1477.46C4102.14 1465.06 4108.87 1449.48 4108.87 1430.71C4108.87 1416.9 4105.5 1404.38 4098.78 1393.17C4092.18 1381.83 4082.8 1372.86 4070.65 1366.25C4058.62 1359.64 4044.46 1356.33 4028.19 1356.33H3930.88V1496.05ZM3930.88 1326.94H4023.06C4037.33 1326.94 4049.83 1323.99 4060.56 1318.08C4071.3 1312.18 4079.67 1304.03 4085.69 1293.65C4091.7 1283.26 4094.71 1271.39 4094.71 1258.05C4094.71 1238.81 4088.46 1223.17 4075.96 1211.13C4063.45 1198.97 4044.82 1192.89 4020.05 1192.89H3930.88V1326.94Z" fill="#727272"/>
<path d="M4253.46 1163.14V1525.8H4220.38V1163.14H4253.46Z" fill="#727272"/>
<path d="M4349.8 1525.8V1163.14H4559.99V1192.89H4382.89V1329.42H4548.84V1359.17H4382.89V1496.05H4563.53V1525.8H4349.8Z" fill="#727272"/>
<path d="M4927.83 1163.14V1525.8H4895.63L4681.54 1222.1H4678.71V1525.8H4645.62V1163.14H4677.65L4892.44 1467.19H4895.27V1163.14H4927.83Z" fill="#727272"/>
<path d="M5002.23 1192.89V1163.14H5264.96V1192.89H5150.14V1525.8H5117.05V1192.89H5002.23Z" fill="#727272"/>
<path d="M5339.45 1525.8V1163.14H5549.64V1192.89H5372.54V1329.42H5538.5V1359.17H5372.54V1496.05H5553.18V1525.8H5339.45Z" fill="#727272"/>
<path d="M5832.02 1253.8C5830.02 1233.61 5821.11 1217.56 5805.31 1205.64C5789.5 1193.71 5769.63 1187.75 5745.68 1187.75C5728.81 1187.75 5713.95 1190.64 5701.09 1196.43C5688.36 1202.21 5678.33 1210.24 5671.02 1220.51C5663.82 1230.66 5660.22 1242.23 5660.22 1255.22C5660.22 1264.78 5662.29 1273.16 5666.42 1280.36C5670.54 1287.57 5676.09 1293.76 5683.05 1298.96C5690.12 1304.03 5697.91 1308.4 5706.4 1312.06C5715.01 1315.72 5723.68 1318.79 5732.41 1321.27L5770.63 1332.25C5782.19 1335.44 5793.75 1339.51 5805.31 1344.47C5816.86 1349.43 5827.42 1355.68 5836.98 1363.24C5846.65 1370.68 5854.37 1379.83 5860.15 1390.69C5866.05 1401.43 5869 1414.36 5869 1429.47C5869 1448.83 5863.99 1466.24 5853.96 1481.71C5843.94 1497.17 5829.55 1509.45 5810.79 1518.54C5792.04 1527.51 5769.57 1532 5743.38 1532C5718.73 1532 5697.32 1527.93 5679.16 1519.78C5660.99 1511.52 5646.72 1500.12 5636.34 1485.6C5625.96 1471.08 5620.12 1454.26 5618.82 1435.14H5652.79C5653.97 1449.42 5658.69 1461.52 5666.95 1471.44C5675.2 1481.35 5685.94 1488.91 5699.15 1494.1C5712.36 1499.18 5727.1 1501.72 5743.38 1501.72C5761.43 1501.72 5777.47 1498.71 5791.51 1492.69C5805.66 1486.55 5816.75 1478.05 5824.77 1467.19C5832.91 1456.21 5836.98 1443.46 5836.98 1428.94C5836.98 1416.66 5833.79 1406.39 5827.42 1398.12C5821.05 1389.74 5812.15 1382.72 5800.71 1377.05C5789.38 1371.39 5776.23 1366.37 5761.25 1362L5717.9 1349.25C5689.48 1340.75 5667.42 1329 5651.73 1314.01C5636.04 1299.02 5628.2 1279.89 5628.2 1256.64C5628.2 1237.16 5633.39 1220.04 5643.77 1205.28C5654.27 1190.41 5668.42 1178.84 5686.23 1170.57C5704.16 1162.19 5724.27 1158 5746.57 1158C5769.09 1158 5789.03 1162.13 5806.37 1170.4C5823.71 1178.66 5837.45 1190.05 5847.59 1204.57C5857.85 1218.98 5863.34 1235.39 5864.05 1253.8H5832.02Z" fill="#727272"/>
</svg>
