<svg width="18" height="18" viewBox="0 0 18 18" fill="none" xmlns="http://www.w3.org/2000/svg">
<path d="M13.7142 9C13.7142 11.6036 11.6035 13.7143 8.9999 13.7143C6.39627 13.7143 4.28561 11.6036 4.28561 9C4.28561 6.39637 6.39627 4.28571 8.9999 4.28571C11.6035 4.28571 13.7142 6.39637 13.7142 9Z" fill="black"/>
<path d="M8.14286 0.857143C8.14286 0.383756 8.52661 0 9 0C9.47339 0 9.85714 0.383756 9.85714 0.857143V2.14286C9.85714 2.61624 9.47339 3 9 3C8.52661 3 8.14286 2.61624 8.14286 2.14286V0.857143Z" fill="black"/>
<path d="M8.14286 15.8571C8.14286 15.3838 8.52661 15 9 15C9.47339 15 9.85714 15.3838 9.85714 15.8571V17.1429C9.85714 17.6162 9.47339 18 9 18C8.52661 18 8.14286 17.6162 8.14286 17.1429V15.8571Z" fill="black"/>
<path d="M17.1429 8.14286C17.6162 8.14286 18 8.52661 18 9C18 9.47339 17.6162 9.85714 17.1429 9.85714H15.8571C15.3838 9.85714 15 9.47339 15 9C15 8.52661 15.3838 8.14286 15.8571 8.14286H17.1429Z" fill="black"/>
<path d="M2.14286 8.14286C2.61624 8.14286 3 8.52661 3 9C3 9.47339 2.61624 9.85714 2.14286 9.85714H0.857143C0.383756 9.85714 -2.06924e-08 9.47339 0 9C2.06924e-08 8.52661 0.383756 8.14286 0.857143 8.14286H2.14286Z" fill="black"/>
<path d="M14.1518 2.63604C14.4865 2.3013 15.0292 2.3013 15.364 2.63604C15.6987 2.97077 15.6987 3.51349 15.364 3.84822L14.4548 4.75736C14.1201 5.09209 13.5774 5.09209 13.2426 4.75736C12.9079 4.42262 12.9079 3.87991 13.2426 3.54518L14.1518 2.63604Z" fill="black"/>
<path d="M3.54518 13.2426C3.87991 12.9079 4.42262 12.9079 4.75736 13.2426C5.09209 13.5774 5.09209 14.1201 4.75736 14.4548L3.84822 15.364C3.51349 15.6987 2.97077 15.6987 2.63604 15.364C2.3013 15.0292 2.3013 14.4865 2.63604 14.1518L3.54518 13.2426Z" fill="black"/>
<path d="M15.364 14.1518C15.6987 14.4865 15.6987 15.0292 15.364 15.364C15.0292 15.6987 14.4865 15.6987 14.1518 15.364L13.2426 14.4548C12.9079 14.1201 12.9079 13.5774 13.2426 13.2426C13.5774 12.9079 14.1201 12.9079 14.4548 13.2426L15.364 14.1518Z" fill="black"/>
<path d="M4.75736 3.54517C5.0921 3.87991 5.0921 4.42262 4.75736 4.75736C4.42262 5.09209 3.87991 5.09209 3.54518 4.75736L2.63604 3.84822C2.3013 3.51349 2.3013 2.97077 2.63604 2.63604C2.97077 2.3013 3.51349 2.3013 3.84822 2.63604L4.75736 3.54517Z" fill="black"/>
</svg>
