<svg width="1778" height="956" viewBox="0 0 1778 956" fill="none" xmlns="http://www.w3.org/2000/svg">
<path d="M371.92 955.901H795.112C815.58 955.901 822.109 940.358 829.231 924.815C856.534 865.233 907.044 756.949 917.965 738.298C928.886 719.646 938.442 722.754 958.919 722.754H1061.31H1151.14C1171.62 722.754 1181.17 719.646 1192.09 738.298C1203.01 756.949 1253.52 865.233 1280.83 924.815C1287.95 940.358 1294.48 955.901 1314.95 955.901H1738.14C1765.44 955.901 1789.33 940.358 1772.27 901.5C1750.42 851.763 1494.7 305.681 1362.74 31.0865C1360.46 23.3149 1351.82 7.77185 1335.43 7.77185H1054.49H774.626C758.237 7.77185 749.595 23.3149 747.323 31.0865C615.363 305.681 359.635 851.763 337.792 901.5C320.726 940.358 344.616 955.901 371.92 955.901Z" fill="#512D7E"/>
<path d="M37.4636 955.901H173.977C141.216 955.901 151.224 919.633 160.323 901.5C294.562 616.543 565.768 41.9664 576.69 23.3146C587.611 4.66293 599.442 0 603.992 0H453.827C442.906 0 435.626 10.3621 433.35 15.5431C303.663 292.728 37.4636 857.979 10.1609 901.5C-17.1418 945.02 16.9866 955.901 37.4636 955.901Z" fill="#512D7E"/>
</svg>
