<svg width="63" height="63" viewBox="0 0 63 63" fill="none" xmlns="http://www.w3.org/2000/svg">
<path d="M43.5 42.5L20 20.5L39.5 0.5L43.5 5L39.5 12L47 8.5L51 12L49 17L53.5 14.5L62.5 23.5L43.5 42.5Z" fill="black"/>
<path d="M41 45L18 23C17 23.8333 14.6 25.9 13 27.5C11.4 29.1 12.3333 30.8333 13 31.5L17.5 36C19.1 37.6 18.1667 40 17.5 41L4.49995 50.5C2.16662 51.8333 -1.60005 55.6 1.99995 60C5.59995 64.4 9.16662 62.5 10.5 61C14 56.6667 21.4 47.5 23 45.5C24.6 43.5 26.6666 44.6667 27.5 45.5C28.5 46.6667 30.8 49.3 32 50.5C33.2 51.7 34.8333 51 35.5 50.5L41 45Z" fill="black"/>
</svg>
