<svg width="45" height="45" viewBox="0 0 45 45" fill="none" xmlns="http://www.w3.org/2000/svg">
<circle cx="22.5" cy="22.5" r="20.5" fill="white" stroke="black" stroke-width="4"/>
<path d="M26.4829 25.1495L19.659 18.7855L25.3214 13L26.4829 14.3017L25.3214 16.3266L27.4992 15.3142L28.6607 16.3266L28.0799 17.773L29.3866 17.0498L32 19.6533L26.4829 25.1495Z" fill="black"/>
<path d="M25.7569 25.8726L19.0783 19.5086C18.7879 19.7497 18.091 20.3475 17.6264 20.8104C17.1618 21.2732 17.4328 21.7746 17.6264 21.9675L18.9331 23.2692C19.3977 23.732 19.1267 24.4263 18.9331 24.7155L15.1582 27.4636C14.4807 27.8493 13.3869 28.9389 14.4323 30.2117C15.4776 31.4845 16.5133 30.9349 16.9005 30.501C17.9168 29.2475 20.0656 26.5958 20.5302 26.0173C20.9948 25.4387 21.5949 25.7762 21.8369 26.0173C22.1272 26.3548 22.7951 27.1165 23.1436 27.4636C23.492 27.8108 23.9663 27.6083 24.1599 27.4636L25.7569 25.8726Z" fill="black"/>
</svg>
